<?xml version="1.0" encoding="UTF-8" standalone="no"?>
<!-- Created with Inkscape (http://www.inkscape.org/) -->

<svg
   version="1.1"
   id="svg1"
   width="125"
   height="175"
   viewBox="0 0 125 174.99999"
   sodipodi:docname="pumpkin07.svg"
   inkscape:version="1.3 (0e150ed6c4, 2023-07-21)"
   xmlns:inkscape="http://www.inkscape.org/namespaces/inkscape"
   xmlns:sodipodi="http://sodipodi.sourceforge.net/DTD/sodipodi-0.dtd"
   xmlns="http://www.w3.org/2000/svg"
   xmlns:svg="http://www.w3.org/2000/svg">
  <defs
     id="defs1">
    <clipPath
       clipPathUnits="userSpaceOnUse"
       id="clipPath4">
      <path
         d="M 0,915.398 H 911.501 V 0 H 0 Z"
         transform="translate(-260.60001,-297.21581)"
         id="path4" />
    </clipPath>
  </defs>
  <sodipodi:namedview
     id="namedview1"
     pagecolor="#505050"
     bordercolor="#ffffff"
     borderopacity="1"
     inkscape:showpageshadow="0"
     inkscape:pageopacity="0"
     inkscape:pagecheckerboard="1"
     inkscape:deskcolor="#d1d1d1"
     inkscape:zoom="1.4646118"
     inkscape:cx="280.62043"
     inkscape:cy="293.93454"
     inkscape:window-width="1920"
     inkscape:window-height="1057"
     inkscape:window-x="-8"
     inkscape:window-y="-8"
     inkscape:window-maximized="1"
     inkscape:current-layer="layer-MC0" />
  <g
     id="layer-MC0"
     inkscape:groupmode="layer"
     inkscape:label="Layer 1"
     transform="translate(-1.4175687,-632.66158)">
    <path
       id="path3"
       d="m 0,0 c -22.836,-19.99 -45.458,-39.794 -68.492,-59.958 1.49,-0.15 2.364,-0.27 3.243,-0.323 7.222,-0.438 14.477,-0.577 21.653,-1.407 3.961,-0.458 6.923,0.671 9.967,2.907 8.893,6.531 17.907,12.898 26.88,19.322 1.224,0.876 2.483,1.704 3.872,2.654 1.985,-2.948 3.785,-5.646 5.611,-8.328 5.04,-7.402 10.091,-14.799 15.14,-22.196 0.828,-1.214 1.724,-2.127 3.379,-2.394 7.048,-1.132 14.066,-2.449 21.099,-3.678 2.019,-0.353 4.049,-0.641 6.65,-1.048 C 33.909,-48.466 17.757,-23.887 0,0 m -224.346,-86.389 c 0.838,0.097 1.18,0.099 1.502,0.18 8.77,2.205 17.545,4.39 26.294,6.671 0.877,0.228 1.762,0.911 2.364,1.62 1.814,2.138 3.535,4.358 5.213,6.605 6.067,8.123 12.097,16.272 18.155,24.401 0.621,0.834 1.337,1.599 2.08,2.481 4.227,-3.367 8.167,-6.548 12.155,-9.671 5.701,-4.461 11.434,-8.883 17.16,-13.313 0.86,-0.666 1.688,-1.142 2.95,-0.961 8.775,1.255 17.566,2.395 26.349,3.59 0.513,0.069 1.005,0.294 1.917,0.57 -22.079,20.018 -44.952,38.498 -69.08,55.808 -15.739,-26.081 -31.287,-51.846 -47.059,-77.981 m 94.87,-108.624 c -0.623,-0.18 -1.039,-0.362 -1.471,-0.417 -7.287,-0.927 -14.59,-1.388 -21.914,-0.491 -3.37,0.413 -4.157,1.168 -4.947,4.422 -0.17,0.701 -0.298,1.424 -0.344,2.143 -0.308,4.785 -0.537,9.576 -0.901,14.357 -0.17,2.248 -0.516,4.489 -0.905,6.712 -0.281,1.603 -1.212,2.685 -2.813,3.352 -4.423,1.844 -8.776,3.854 -13.173,5.759 -18.669,8.089 -37.343,16.166 -56.021,24.233 -0.503,0.217 -1.079,0.266 -1.865,0.452 0.394,-0.995 0.632,-1.678 0.929,-2.333 7.238,-15.974 15.926,-31.079 26.993,-44.735 11.041,-13.624 23.828,-25.253 39.159,-33.927 15.115,-8.553 31.184,-13.876 48.687,-14.256 1.779,-0.039 3.563,0.181 5.574,0.296 0.076,1.668 0.235,3.094 0.189,4.514 -0.147,4.523 -0.423,9.042 -0.538,13.565 -0.047,1.865 0.189,3.737 0.3,5.675 1.752,0.161 3.187,0.254 4.611,0.431 6.91,0.864 13.806,1.858 20.73,2.581 3.313,0.346 6.684,0.363 10.016,0.219 2.848,-0.124 3.833,-1.146 4.374,-3.927 0.327,-1.68 0.479,-3.403 0.6,-5.115 0.224,-3.16 0.329,-6.328 0.562,-9.487 0.08,-1.072 0.294,-2.16 0.633,-3.18 0.536,-1.617 1.144,-1.954 2.841,-1.792 1.26,0.12 2.523,0.251 3.769,0.468 11.797,2.048 23.262,5.295 34.431,9.603 17.106,6.598 32.857,15.5 46.786,27.505 16.078,13.857 28.051,30.615 35.641,50.47 0.431,1.127 0.811,2.274 1.352,3.798 -1.93,-0.386 -3.351,-0.596 -4.733,-0.955 -22.06,-5.731 -43.92,-12.139 -65.505,-19.461 -4.362,-1.48 -8.64,-3.222 -12.901,-4.981 -2.929,-1.21 -2.916,-1.447 -2.196,-4.471 1.59,-6.687 3.218,-13.366 4.663,-20.084 0.53,-2.461 0.721,-5.02 0.824,-7.543 0.116,-2.802 -0.586,-3.511 -3.284,-3.998 -0.356,-0.065 -0.718,-0.095 -1.076,-0.144 -7.55,-1.017 -15.137,-1.289 -22.744,-1.101 -0.901,0.022 -1.799,0.169 -2.699,0.25 -1.039,0.093 -1.664,0.666 -1.857,1.67 -0.17,0.886 -0.336,1.781 -0.394,2.678 -0.2,3.071 -0.268,6.153 -0.548,9.215 -0.246,2.695 -0.613,5.389 -1.11,8.049 -0.346,1.85 -1.507,3.017 -3.55,3.142 -1.35,0.082 -2.686,0.395 -4.036,0.49 -15.994,1.124 -32.003,1.059 -48.012,0.468 -3.607,-0.132 -7.2,-0.657 -10.799,-1.003 -1.562,-0.151 -2.444,-1.061 -2.773,-2.546 -0.157,-0.704 -0.356,-1.419 -0.371,-2.132 -0.088,-4.158 -0.136,-8.318 -0.181,-12.476 -0.021,-1.977 -0.003,-3.954 -0.003,-5.962 m 289.531,80.252 c 0,-1.991 0.027,-3.983 -0.008,-5.975 -0.032,-1.875 0.174,-3.741 -0.653,-5.585 -0.412,-0.919 -0.214,-2.143 -0.179,-3.224 0.133,-4.092 -0.913,-7.959 -2.06,-11.83 -0.919,-3.098 -1.668,-6.245 -2.481,-9.374 -0.858,-3.299 -1.611,-6.628 -2.574,-9.896 -1.557,-5.284 -3.438,-10.438 -5.751,-15.466 -1.403,-3.051 -1.731,-6.565 -3.329,-9.607 -0.49,-0.93 -0.999,-1.854 -1.442,-2.808 -2.956,-6.37 -7.011,-12.125 -10.279,-18.296 -1.993,-3.765 -3.997,-7.523 -6.229,-11.136 -1.623,-2.629 -3.697,-4.978 -5.543,-7.471 -1.261,-1.705 -2.358,-3.546 -3.735,-5.149 -4.528,-5.273 -8.865,-10.759 -13.831,-15.592 -3.807,-3.705 -7.345,-7.745 -11.665,-10.937 -1.326,-0.981 -2.333,-2.39 -3.501,-3.588 -2.576,-2.641 -6.007,-4.066 -8.915,-6.24 -1.621,-1.211 -3.375,-2.243 -5.028,-3.413 -2.666,-1.886 -5.154,-4.081 -7.983,-5.671 -3.789,-2.128 -7.704,-3.981 -11.952,-5.271 -4.843,-1.47 -10.062,-1.774 -14.545,-4.458 -0.653,-0.391 -1.581,-0.316 -2.379,-0.473 -3.079,-0.601 -6.013,-1.71 -9.159,-2.187 -3.595,-0.545 -7.052,-1.972 -10.595,-2.915 -2.171,-0.577 -4.377,-1.047 -6.592,-1.421 -3.284,-0.557 -6.787,-0.457 -9.839,-1.595 -4.292,-1.599 -8.802,-0.485 -13.022,-1.843 -1.1,-0.354 -2.212,-0.82 -3.342,-0.902 -1.759,-0.127 -3.539,0.022 -5.31,0.072 -1.133,0.033 -2.308,0.318 -3.389,0.107 -2.254,-0.44 -4.418,-0.403 -6.681,0.045 -2.374,0.469 -4.826,0.664 -7.251,0.731 -3.252,0.091 -6.511,-0.041 -9.767,-0.102 -6.678,-0.127 -13.26,0.728 -19.816,1.883 -0.617,0.109 -1.264,0.064 -1.896,0.07 -8.323,0.078 -16.647,0.11 -24.968,0.264 -1.584,0.029 -3.157,0.544 -4.737,0.816 -0.976,0.167 -1.958,0.418 -2.938,0.421 -2.711,0.008 -5.424,-0.097 -8.136,-0.15 -4.458,-0.087 -8.791,0.568 -12.995,2.099 -1.347,0.49 -2.755,0.816 -4.143,1.188 -4.32,1.157 -8.587,2.678 -12.982,3.348 -5.19,0.791 -9.899,3.011 -14.905,4.319 -3.412,0.894 -6.909,2.103 -9.994,4.229 -2.228,1.535 -4.998,2.256 -7.421,3.538 -2.201,1.163 -4.325,2.502 -6.37,3.926 -4.666,3.249 -9.309,6.537 -13.874,9.926 -3.711,2.756 -7.6,5.243 -11.098,8.339 -2.484,2.201 -5.356,4.011 -7.588,6.526 -1.458,1.643 -2.758,3.429 -4.092,5.179 -1.832,2.405 -3.639,4.828 -5.437,7.256 -1.411,1.906 -2.78,3.842 -4.193,5.746 -1.692,2.283 -3.432,4.529 -5.105,6.825 -0.63,0.864 -1.131,1.823 -1.694,2.737 -0.455,0.738 -0.94,1.46 -1.368,2.214 -0.514,0.905 -1.017,1.821 -1.457,2.763 -0.379,0.812 -0.495,1.794 -1.018,2.48 -1.716,2.255 -2.684,4.808 -3.476,7.486 -0.265,0.895 -0.939,1.692 -1.517,2.465 -2.421,3.234 -3.436,7.016 -4.373,10.85 -0.338,1.383 -0.967,2.691 -1.4,4.052 -1.821,5.717 -3.5,11.481 -5.466,17.146 -1.167,3.362 -1.736,6.795 -2.266,10.277 -0.266,1.753 -1.022,3.426 -1.397,5.169 -0.545,2.535 -1.01,5.093 -1.392,7.657 -0.466,3.125 -0.789,6.271 -1.216,9.401 -0.217,1.597 -0.643,3.172 -0.752,4.771 -0.07,1.047 0.286,2.119 0.4,3.184 0.104,0.978 0.368,2.014 0.17,2.939 -1.078,5.03 -0.779,10.151 -0.318,15.133 0.307,3.306 0.436,6.634 0.809,9.931 0.269,2.378 1.035,4.701 1.585,7.047 0.04,0.172 0.173,0.324 0.201,0.496 0.546,3.277 1.128,6.549 1.607,9.836 0.414,2.846 1.13,5.584 1.93,8.357 1.212,4.203 2.791,8.28 3.939,12.491 0.755,2.768 1.568,5.431 3.134,7.932 1.357,2.168 1.915,4.82 3.025,7.163 1.983,4.187 4.118,8.3 6.184,12.446 0.236,0.474 0.463,0.954 0.65,1.448 1.367,3.623 3.655,6.699 5.744,9.906 2.728,4.189 6.388,7.678 9.064,11.827 1.65,2.56 3.595,4.863 5.434,7.202 2.953,3.758 6.484,7.072 9.863,10.48 1.798,1.814 3.738,3.5 5.708,5.129 3.889,3.216 7.408,6.916 11.991,9.25 0.775,0.395 1.338,1.188 2.061,1.714 2.712,1.973 5.449,3.914 8.182,5.858 0.288,0.205 0.599,0.398 0.927,0.521 2.247,0.842 4.303,1.813 6.283,3.374 2.156,1.701 5.164,2.323 7.807,3.4 1.398,0.57 2.932,0.916 4.183,1.712 1.31,0.833 2.674,0.893 4.09,1.152 2.183,0.399 4.321,1.062 6.463,1.667 3.006,0.849 5.99,1.773 8.997,2.615 1.456,0.409 2.929,0.793 4.419,1.031 1.868,0.298 3.759,0.575 5.646,0.611 3.63,0.07 7.203,0.252 10.589,1.797 0.7,0.318 1.599,0.229 2.409,0.27 3.033,0.155 6.073,-0.305 9.071,0.946 1.405,0.585 3.216,0.235 4.843,0.241 3.519,0.014 7.039,10e-4 10.559,-0.031 2.885,-0.027 5.735,-0.098 8.56,0.865 1.2,0.409 2.675,0.141 4.006,-10e-4 1.231,-0.132 2.423,-0.614 3.653,-0.756 3.142,-0.363 3.255,-0.371 4.501,2.363 1.063,2.335 2.084,4.645 2.082,7.407 -0.003,3.236 1.164,6.331 2.591,9.264 0.15,0.308 0.403,0.599 0.447,0.92 0.443,3.294 0.739,6.611 1.32,9.88 0.271,1.531 1.063,2.972 1.634,4.447 0.387,0.998 0.828,1.976 1.201,2.979 1.306,3.508 2.724,6.982 3.847,10.548 0.936,2.971 2.315,5.824 2.293,9.094 -0.012,1.847 0.458,3.668 1.369,5.438 0.872,1.691 1.106,3.721 1.555,5.617 0.456,1.919 0.542,3.984 1.312,5.757 1.05,2.415 2.504,4.674 3.953,6.889 1.502,2.296 3.136,4.515 4.835,6.671 2.185,2.774 4.574,5.358 7.4,7.527 0.91,0.698 1.816,0.893 2.768,0.556 2.524,-0.892 5.04,-1.825 7.493,-2.895 1.361,-0.593 2.702,-1.358 3.827,-2.312 0.55,-0.465 0.887,-1.581 0.786,-2.33 -0.187,-1.384 -0.765,-2.715 -1.183,-4.068 -0.328,-1.062 -0.514,-2.06 0.31,-3.059 0.731,-0.887 1.212,-1.983 1.948,-2.865 1.219,-1.461 1.171,-2.924 0.267,-4.459 -1.335,-2.267 -2.435,-4.629 -4.041,-6.795 -1.649,-2.223 -2.347,-5.152 -3.462,-7.773 -0.417,-0.981 -0.794,-1.983 -1.262,-2.94 -2.43,-4.968 -2.586,-10.424 -2.141,-15.619 0.43,-5.023 1,-10.194 2.947,-15.033 0.723,-1.798 0.782,-3.852 1.274,-5.755 0.625,-2.419 1.027,-4.987 2.155,-7.164 2.469,-4.761 4.897,-9.64 9.049,-13.247 1.747,-1.518 3.68,-2.87 5.689,-4.018 1.112,-0.634 2.539,-0.848 3.85,-0.965 1.793,-0.16 3.614,0.025 5.417,-0.066 3.303,-0.167 6.35,1.053 9.511,1.647 1.324,0.248 2.613,0.824 3.939,0.901 8.664,0.508 17.339,0.83 25.985,-0.235 2.303,-0.284 4.55,-1.003 6.83,-1.487 3.244,-0.687 6.539,-1.177 9.728,-2.055 3.1,-0.853 6.103,-2.063 9.132,-3.161 2.275,-0.824 4.656,-1.479 6.751,-2.641 2.683,-1.487 5.718,-2.108 8.239,-4.105 2.603,-2.062 5.774,-3.406 8.706,-5.047 0.464,-0.26 1.089,-0.316 1.451,-0.663 1.638,-1.57 3.658,-2.504 5.579,-3.629 1.886,-1.102 3.581,-2.417 5.067,-4.155 1.527,-1.785 3.666,-3.088 5.656,-4.426 1.637,-1.1 3.102,-2.26 4.313,-3.876 0.934,-1.245 2.38,-2.11 3.613,-3.126 3.238,-2.669 5.824,-5.945 8.413,-9.197 2.379,-2.988 4.705,-6.036 6.819,-9.214 1.854,-2.789 3.406,-5.782 5.047,-8.71 2.298,-4.1 4.611,-8.194 6.799,-12.353 0.821,-1.561 1.195,-3.353 1.969,-4.943 1.856,-3.817 2.747,-8.066 5.233,-11.598 0.302,-0.43 0.515,-0.942 0.685,-1.443 1.267,-3.727 2.56,-7.446 3.749,-11.196 0.974,-3.072 1.615,-6.263 2.781,-9.255 0.998,-2.56 1.359,-5.121 1.606,-7.819 0.41,-4.468 1.272,-8.892 1.828,-13.349 0.234,-1.879 0.167,-3.795 0.252,-5.694 0.081,-1.783 -0.102,-3.562 0.813,-5.282 0.424,-0.796 0.222,-1.947 0.23,-2.939 0.024,-2.624 0.009,-5.248 0.009,-7.873 z"
       style="fill:#000000;fill-opacity:1;fill-rule:nonzero;stroke:none"
       transform="matrix(0.27326937,0,0,-0.27216942,77.631569,699.26853)"
       clip-path="url(#clipPath4)" />
  </g>
</svg>
