<?xml version="1.0" encoding="UTF-8" standalone="no"?>
<svg
   viewBox="0 0 125 175"
   version="1.1"
   id="svg9"
   sodipodi:docname="skull.svg"
   width="125"
   height="175"
   inkscape:version="1.3 (0e150ed6c4, 2023-07-21)"
   xmlns:inkscape="http://www.inkscape.org/namespaces/inkscape"
   xmlns:sodipodi="http://sodipodi.sourceforge.net/DTD/sodipodi-0.dtd"
   xmlns="http://www.w3.org/2000/svg"
   xmlns:svg="http://www.w3.org/2000/svg">
  <defs
     id="defs9" />
  <sodipodi:namedview
     id="namedview9"
     pagecolor="#505050"
     bordercolor="#ffffff"
     borderopacity="1"
     inkscape:showpageshadow="0"
     inkscape:pageopacity="0"
     inkscape:pagecheckerboard="1"
     inkscape:deskcolor="#d1d1d1"
     inkscape:zoom="8.2947767"
     inkscape:cx="32.972557"
     inkscape:cy="88.670259"
     inkscape:window-width="1920"
     inkscape:window-height="1057"
     inkscape:window-x="-8"
     inkscape:window-y="-8"
     inkscape:window-maximized="1"
     inkscape:current-layer="svg9" />
  <g
     transform="matrix(7.5858382,0,0,7.554695,519.36048,-514.1693)"
     id="g9">
    <path
       id="path1"
       style="stroke:none;fill:#000000"
       d="M -65.647246 73.406256 C -65.871176 73.406256 -66.101533 73.485396 -66.272383 73.656256 C -66.485953 73.869826 -66.544365 74.161768 -66.490975 74.437538 C -66.770825 74.378428 -67.08622 74.470212 -67.30355 74.687537 C -67.645255 75.029247 -67.645255 75.564544 -67.30355 75.906254 C -66.96184 76.247964 -66.395243 76.247964 -66.053533 75.906254 C -65.985638 75.838354 -65.938169 75.768876 -65.897249 75.687536 L -64.283685 77.301289 C -64.463739 77.703958 -64.562268 78.138831 -64.562268 78.59317 C -64.562268 79.551535 -64.116372 80.423603 -63.393612 81.090065 L -65.897249 83.593682 C -65.938169 83.512342 -65.985638 83.442864 -66.053533 83.374964 C -66.395243 83.033259 -66.96184 83.033259 -67.30355 83.374964 C -67.645255 83.716674 -67.645255 84.251971 -67.30355 84.593681 C -67.08622 84.811006 -66.770825 84.871508 -66.490975 84.812398 C -66.550085 85.092248 -66.489733 85.407632 -66.272383 85.624962 C -65.930673 85.966672 -65.39523 85.966672 -65.05352 85.624962 C -64.711815 85.283252 -64.711815 84.716673 -65.05352 84.374963 C -65.12142 84.307063 -65.19103 84.25973 -65.27237 84.21881 L -62.680678 81.627034 C -62.513657 81.728939 -62.338557 81.822395 -62.155954 81.905731 L -62.155954 83.718294 L -57.655895 83.718294 L -57.655895 81.905731 C -57.618423 81.88863 -57.582768 81.86935 -57.545956 81.851439 L -55.17852 84.21881 C -55.25986 84.25973 -55.329469 84.307063 -55.397369 84.374963 C -55.739079 84.716673 -55.739079 85.283252 -55.397369 85.624962 C -55.055664 85.966672 -54.520212 85.966672 -54.178507 85.624962 C -53.961177 85.407632 -53.869398 85.092248 -53.928503 84.812398 C -53.652738 84.865788 -53.36091 84.807226 -53.14734 84.593681 C -52.80563 84.251971 -52.80563 83.716674 -53.14734 83.374964 C -53.489045 83.033259 -54.055651 83.033259 -54.397356 83.374964 C -54.465256 83.442864 -54.51272 83.512342 -54.55364 83.593682 L -56.769684 81.37781 C -55.853162 80.685618 -55.280993 79.696702 -55.280993 78.59317 C -55.280993 77.983516 -55.456296 77.409226 -55.766581 76.900565 L -54.55364 75.687536 C -54.51272 75.768876 -54.465256 75.838354 -54.397356 75.906254 C -54.055651 76.247964 -53.489045 76.247964 -53.14734 75.906254 C -52.80563 75.564544 -52.80563 75.029247 -53.14734 74.687537 C -53.36091 74.473972 -53.652738 74.384148 -53.928503 74.437538 C -53.875118 74.161768 -53.964937 73.869826 -54.178507 73.656256 C -54.349357 73.485396 -54.548307 73.406256 -54.772232 73.406256 C -54.996162 73.406256 -55.226519 73.485396 -55.397369 73.656256 C -55.739079 73.997966 -55.739079 74.564545 -55.397369 74.906255 C -55.329469 74.974155 -55.25986 75.021488 -55.17852 75.062408 L -56.317824 76.201755 C -57.164452 75.352468 -58.454676 74.811891 -59.905925 74.811891 C -61.535312 74.811891 -62.974056 75.493435 -63.806594 76.52828 L -65.27237 75.062408 C -65.19103 75.021488 -65.12142 74.974155 -65.05352 74.906255 C -64.711815 74.564545 -64.711815 73.997966 -65.05352 73.656256 C -65.22438 73.485396 -65.423316 73.406256 -65.647246 73.406256 z M -61.668821 78.606355 C -61.058625 78.606355 -60.564018 79.101136 -60.564018 79.711317 C -60.564018 80.321516 -61.058625 80.816022 -61.668821 80.816022 C -62.279017 80.816022 -62.773624 80.321516 -62.773624 79.711317 C -62.773624 79.101122 -62.279017 78.606355 -61.668821 78.606355 z M -58.138909 78.686499 C -57.52871 78.686499 -57.033848 79.181019 -57.033848 79.791204 C -57.033848 80.4014 -57.52871 80.896166 -58.138909 80.896166 C -58.749105 80.896166 -59.243712 80.4014 -59.243712 79.791204 C -59.243712 79.181005 -58.749105 78.686499 -58.138909 78.686499 z M -59.954072 80.847562 L -59.526157 81.588772 L -59.098242 82.329981 L -60.809902 82.329981 L -60.381987 81.588772 L -59.954072 80.847562 z " />
  </g>
</svg>
