<?xml version="1.0" encoding="UTF-8" standalone="no"?>
<svg
   enable-background="new 0 0 1920 1920"
   version="1.1"
   viewBox="0 0 125 175"
   id="svg9"
   sodipodi:docname="cat03.svg"
   width="125"
   height="175"
   inkscape:version="1.3 (0e150ed6c4, 2023-07-21)"
   xmlns:inkscape="http://www.inkscape.org/namespaces/inkscape"
   xmlns:sodipodi="http://sodipodi.sourceforge.net/DTD/sodipodi-0.dtd"
   xmlns="http://www.w3.org/2000/svg"
   xmlns:svg="http://www.w3.org/2000/svg">
  <defs
     id="defs9" />
  <sodipodi:namedview
     id="namedview9"
     pagecolor="#505050"
     bordercolor="#ffffff"
     borderopacity="1"
     inkscape:showpageshadow="0"
     inkscape:pageopacity="0"
     inkscape:pagecheckerboard="1"
     inkscape:deskcolor="#d1d1d1"
     inkscape:zoom="0.4484375"
     inkscape:cx="771.56794"
     inkscape:cy="-219.65157"
     inkscape:window-width="1920"
     inkscape:window-height="1057"
     inkscape:window-x="-8"
     inkscape:window-y="-8"
     inkscape:window-maximized="1"
     inkscape:current-layer="svg9" />
  <path
     d="m 103.09716,5.4433557 c 0.90409,-0.4579 2.08708,-0.69153 2.9656,-0.0467 1.29919,0.95318 1.78959,2.60022 2.19864,4.09073 0.95289,3.9388703 1.02959,8.0225903 1.10396,12.0549203 0.0465,1.14241 -0.47412,2.19838 -0.62287,3.31276 0.36489,3.64918 0.90874,7.28201 1.25736,10.93119 -0.17896,4.90607 -0.44623,9.81214 -0.63217,14.71821 -0.0139,2.88758 0.007,5.77515 -0.009,8.66272 -0.16269,2.80347 -0.44856,5.59759 -0.62055,8.40106 0.10924,1.94608 0.34398,3.88514 0.50667,5.82888 0.23241,1.98112 0.0418,3.98093 -0.10924,5.96204 -0.78091,8.00157 -3.19801,15.74615 -6.19615,23.166004 -0.42067,1.29193 -0.61125,2.64928 -0.92733,3.96925 -2.04756,9.73971 -3.86736,19.57522 -4.36473,29.53454 -0.0232,1.40173 -0.19755,2.81982 0.0697,4.20987 0.48807,2.91094 1.07607,5.82888 2.13123,8.59497 0.78323,1.94372 1.9453,4.3664 4.30895,4.56031 1.06445,1.07233 2.20096,2.0769 3.22358,3.18895 0.0302,0.98355 0.0674,1.97644 -0.0325,2.95766 -0.24868,1.04429 -1.26201,1.63535 -2.17307,2.03251 -2.0801,0.84805 -4.33451,1.11438 -6.54942,1.348 -0.65308,0.0911 -1.25038,-0.2453 -1.80817,-0.53266 -2.55423,-1.46715 -4.48791,-3.74263 -6.50991,-5.83355 -0.79021,-0.27334 -1.0784,0.94617 -1.87093,0.63545 -2.82615,-0.98588 -5.60582,-2.11661 -8.425,-3.1282 -0.69491,-0.13784 -1.40842,-0.0537 -2.10799,-0.0677 0,0.85272 -0.002,1.70778 0,2.56284 2.25906,1.87832 4.55996,3.88047 5.92655,6.53909 0.71583,1.39472 0.99473,3.32912 -0.22079,4.53461 -1.685,1.6447 -4.14626,2.01382 -6.37046,2.36426 -0.22079,-0.22662 -0.44159,-0.45089 -0.65773,-0.67283 -1.12488,0.0607 -2.19631,0.43687 -3.28866,0.6775 -1.71753,-0.84104 -3.45831,-1.89935 -4.45537,-3.59545 -0.51828,-0.84338 -0.72513,-1.82926 -0.78555,-2.80347 -3.50713,2.18204 -7.64641,3.19128 -11.75084,3.20297 -1.38518,-2.3666 -2.99581,-4.7659 -5.40827,-6.17464 -0.92268,-0.54668 -1.97784,-0.81067 -3.03764,-0.89011 -0.32771,0.92749 -1.16904,1.49052 -1.98017,1.95776 -2.42872,1.33632 -5.07126,2.22642 -7.69289,3.09316 -1.49209,0.18223 -3.02602,0.11448 -4.50418,-0.17755 -4.13696,-0.71722 -8.29716,-1.65405 -12.1041,-3.48565 -2.27068,-1.11905 -4.51115,-2.64227 -5.729,-4.94345 -1.22017,-2.28249 -1.15974,-5.29855 0.45321,-7.37779 1.62457,-2.11429 4.13929,-3.26137 6.59358,-4.09073 4.43445,-1.43678 9.10364,-1.92271 13.731,-2.22642 -0.64611,-7.61142 -1.29687,-15.2205 -1.94066,-22.83192 -0.0395,-6.17464 0.39046,-12.36563 1.43399,-18.45383 1.348,-7.826354 3.81391,-15.549914 8.02757,-22.308604 4.58552,-7.45489 11.45102,-13.44497 19.41816,-16.9937 3.07019,-1.04429 6.26355,-2.06522 8.82243,-4.14446 0.47412,-0.4322 1.31778,-1.03261 0.81112,-1.75684 -2.10567,-2.83851 -4.23225,-5.69104 -5.86147,-8.84261 -0.61822,-1.28492 -1.26666,-2.6446 -1.2132,-4.10941 0.0209,-1.7989 -0.0279,-3.60012 0.0232,-5.39902 0.17431,-0.26165 0.40905,-0.46958 0.62519,-0.69619 -1.97319,-4.48789 -3.79299,-9.05521 -5.13402,-13.77905 -0.82971,-3.01139 -1.48512,-6.10923 -1.42004,-9.25145 0.44623,-0.41351 0.88084,-0.8387 1.30616,-1.27324 1.61295,0.2967 2.97257,1.29193 4.34149,2.13998 3.60241,2.40631 6.99797,5.10699 10.37262,7.81934 0.52061,0.51397 1.31314,0.2383 1.96157,0.264 3.8999,-0.35745 7.85326,-0.76161 11.57188,-2.0699 1.24806,-0.48593 2.56585,-1.07232 3.38162,-2.18904 0.45785,-0.58639 0.38116,-1.39706 0.79021,-2.00682 1.58041,-2.64927 3.24217,-5.25884 5.19444,-7.6441203 1.15742,-1.33634 2.38224,-2.68432 3.96265,-3.51835 M 81.77089,144.31084 c -0.79718,0.41819 -1.66641,0.68452 -2.5612,0.76862 0.002,0.20325 0.005,0.4065 0.007,0.61209 3.05856,0.20792 6.11713,0.41818 9.17337,0.64013 -0.20685,-2.12597 -0.43229,-4.24726 -0.64844,-6.37089 -1.88022,1.59097 -3.76277,3.231 -5.9707,4.35005 m -51.04734,9.69066 v 0.63779 c 1.33173,0.1869 2.66578,0.36912 3.99751,0.56536 0.5392,0.0701 1.09699,0.14018 1.6269,-0.028 1.40145,-0.39482 2.80755,-0.7803 4.21133,-1.17979 0,-0.15887 -0.002,-0.47893 -0.002,-0.63779 -3.28401,0.0421 -6.55407,0.44622 -9.83342,0.64246 m 33.41411,1.28025 c 0.66935,0.63312 1.32243,1.28726 1.98714,1.92505 -0.002,-0.64246 -0.002,-1.28259 -0.002,-1.92271 -0.66238,-0.005 -1.32476,-0.005 -1.98481,-0.002 z"
     id="path1"
     style="stroke-width:0.233017" />
</svg>
