<?xml version="1.0" encoding="UTF-8" standalone="no"?>
<!-- Created with Inkscape (http://www.inkscape.org/) -->

<svg
   version="1.1"
   id="svg421"
   width="588.35419"
   height="367.54926"
   viewBox="0 0 588.35418 367.54924"
   sodipodi:docname="plaque.svg"
   inkscape:version="1.2.2 (732a01da63, 2022-12-09, custom)"
   xmlns:inkscape="http://www.inkscape.org/namespaces/inkscape"
   xmlns:sodipodi="http://sodipodi.sourceforge.net/DTD/sodipodi-0.dtd"
   xmlns="http://www.w3.org/2000/svg"
   xmlns:svg="http://www.w3.org/2000/svg">
  <defs
     id="defs425">
    <clipPath
       clipPathUnits="userSpaceOnUse"
       id="clipPath735">
      <g
         id="g741">
        <g
           id="g739">
          <path
             d="M 0,915.398 H 911.501 V 0 H 0 Z"
             id="path737" />
        </g>
      </g>
    </clipPath>
    <clipPath
       clipPathUnits="userSpaceOnUse"
       id="clipPath750">
      <g
         id="g756">
        <g
           id="g754">
          <path
             d="M 0,915.398 H 911.501 V 0 H 0 Z"
             id="path752" />
        </g>
      </g>
    </clipPath>
    <clipPath
       clipPathUnits="userSpaceOnUse"
       id="clipPath765">
      <g
         id="g771">
        <g
           id="g769">
          <path
             d="M 0,915.398 H 911.501 V 0 H 0 Z"
             id="path767" />
        </g>
      </g>
    </clipPath>
    <clipPath
       clipPathUnits="userSpaceOnUse"
       id="clipPath780">
      <g
         id="g786">
        <g
           id="g784">
          <path
             d="M 0,915.398 H 911.501 V 0 H 0 Z"
             id="path782" />
        </g>
      </g>
    </clipPath>
    <clipPath
       clipPathUnits="userSpaceOnUse"
       id="clipPath795">
      <g
         id="g801">
        <g
           id="g799">
          <path
             d="M 0,915.398 H 911.501 V 0 H 0 Z"
             id="path797" />
        </g>
      </g>
    </clipPath>
    <clipPath
       clipPathUnits="userSpaceOnUse"
       id="clipPath810">
      <g
         id="g816">
        <g
           id="g814">
          <path
             d="M 0,915.398 H 911.501 V 0 H 0 Z"
             id="path812" />
        </g>
      </g>
    </clipPath>
    <clipPath
       clipPathUnits="userSpaceOnUse"
       id="clipPath825">
      <g
         id="g831">
        <g
           id="g829">
          <path
             d="M 0,915.398 H 911.501 V 0 H 0 Z"
             id="path827" />
        </g>
      </g>
    </clipPath>
    <clipPath
       clipPathUnits="userSpaceOnUse"
       id="clipPath840">
      <g
         id="g846">
        <g
           id="g844">
          <path
             d="M 0,915.398 H 911.501 V 0 H 0 Z"
             id="path842" />
        </g>
      </g>
    </clipPath>
    <clipPath
       clipPathUnits="userSpaceOnUse"
       id="clipPath855">
      <g
         id="g861">
        <g
           id="g859">
          <path
             d="M 0,915.398 H 911.501 V 0 H 0 Z"
             id="path857" />
        </g>
      </g>
    </clipPath>
    <clipPath
       clipPathUnits="userSpaceOnUse"
       id="clipPath870">
      <g
         id="g876">
        <g
           id="g874">
          <path
             d="M 0,915.398 H 911.501 V 0 H 0 Z"
             id="path872" />
        </g>
      </g>
    </clipPath>
    <clipPath
       clipPathUnits="userSpaceOnUse"
       id="clipPath885">
      <g
         id="g891">
        <g
           id="g889">
          <path
             d="M 0,915.398 H 911.501 V 0 H 0 Z"
             id="path887" />
        </g>
      </g>
    </clipPath>
    <clipPath
       clipPathUnits="userSpaceOnUse"
       id="clipPath900">
      <g
         id="g906">
        <g
           id="g904">
          <path
             d="M 0,915.398 H 911.501 V 0 H 0 Z"
             id="path902" />
        </g>
      </g>
    </clipPath>
    <clipPath
       clipPathUnits="userSpaceOnUse"
       id="clipPath915">
      <g
         id="g921">
        <g
           id="g919">
          <path
             d="M 0,915.398 H 911.501 V 0 H 0 Z"
             id="path917" />
        </g>
      </g>
    </clipPath>
    <clipPath
       clipPathUnits="userSpaceOnUse"
       id="clipPath930">
      <g
         id="g936">
        <g
           id="g934">
          <path
             d="M 0,915.398 H 911.501 V 0 H 0 Z"
             id="path932" />
        </g>
      </g>
    </clipPath>
    <clipPath
       clipPathUnits="userSpaceOnUse"
       id="clipPath945">
      <g
         id="g951">
        <g
           id="g949">
          <path
             d="M 0,915.398 H 911.501 V 0 H 0 Z"
             id="path947" />
        </g>
      </g>
    </clipPath>
    <clipPath
       clipPathUnits="userSpaceOnUse"
       id="clipPath960">
      <g
         id="g966">
        <g
           id="g964">
          <path
             d="M 0,915.398 H 911.501 V 0 H 0 Z"
             id="path962" />
        </g>
      </g>
    </clipPath>
    <clipPath
       clipPathUnits="userSpaceOnUse"
       id="clipPath975">
      <g
         id="g981">
        <g
           id="g979">
          <path
             d="M 0,915.398 H 911.501 V 0 H 0 Z"
             id="path977" />
        </g>
      </g>
    </clipPath>
    <clipPath
       clipPathUnits="userSpaceOnUse"
       id="clipPath990">
      <g
         id="g996">
        <g
           id="g994">
          <path
             d="M 0,915.398 H 911.501 V 0 H 0 Z"
             id="path992" />
        </g>
      </g>
    </clipPath>
    <clipPath
       clipPathUnits="userSpaceOnUse"
       id="clipPath1005">
      <g
         id="g1011">
        <g
           id="g1009">
          <path
             d="M 0,915.398 H 911.501 V 0 H 0 Z"
             id="path1007" />
        </g>
      </g>
    </clipPath>
  </defs>
  <sodipodi:namedview
     id="namedview423"
     pagecolor="#505050"
     bordercolor="#eeeeee"
     borderopacity="1"
     inkscape:showpageshadow="0"
     inkscape:pageopacity="0"
     inkscape:pagecheckerboard="0"
     inkscape:deskcolor="#505050"
     showgrid="false"
     inkscape:zoom="2.1439303"
     inkscape:cx="294.31926"
     inkscape:cy="184.00784"
     inkscape:window-width="1920"
     inkscape:window-height="1016"
     inkscape:window-x="0"
     inkscape:window-y="0"
     inkscape:window-maximized="1"
     inkscape:current-layer="g429" />
  <g
     id="g429"
     inkscape:groupmode="layer"
     inkscape:label="Page 1"
     transform="matrix(1.3333333,0,0,-1.3333333,-626.98029,368.7175)">
    <path
       id="path453"
       clip-path="url(#clipPath840)"
       style="fill:#000000;fill-opacity:1;fill-rule:nonzero;stroke:none"
       d="M 880.74452 276.53813 C 879.54552 276.35313 878.66021 276.2261 877.77821 276.0811 C 869.65922 274.7451 861.56585 273.22665 853.41786 272.09966 C 829.65488 268.81466 805.76427 266.83828 781.81629 265.59428 C 754.16032 264.15829 726.47752 263.46373 698.78455 263.67973 C 675.80557 263.85773 652.82537 264.31692 629.8534 264.92192 C 614.11741 265.33492 598.3873 266.06797 582.66931 266.91997 C 567.85633 267.72297 553.05749 268.77253 538.2655 269.89653 C 529.51951 270.56053 520.79623 271.55636 512.06824 272.44536 C 507.94624 272.86536 503.83535 273.38902 499.43835 273.89702 C 499.29736 272.89002 499.17257 272.02137 499.05457 271.15337 C 498.44557 266.65337 497.48893 262.24047 495.70593 258.04448 C 491.64994 248.50549 484.33 243.36561 474.16101 242.08061 C 472.92601 241.92461 471.69109 241.76371 470.24109 241.57671 C 470.24109 239.66871 470.22655 237.96 470.24255 236.252 C 470.57155 201.85003 470.93046 167.44839 471.22546 133.04643 C 471.36346 116.84145 471.43747 100.63571 471.43347 84.429729 C 471.42847 68.951744 471.56438 53.468208 470.43738 38.013224 C 470.42738 37.870224 470.59023 37.713809 470.71423 37.48881 C 472.35323 37.26081 474.04872 37.047219 475.73572 36.78422 C 485.35571 35.286221 491.90442 30.045948 495.20642 20.815958 C 497.17842 15.302963 497.86531 9.5658888 498.29431 3.7768946 C 498.36531 2.8228956 498.50551 1.8745029 498.61951 0.87650393 C 499.56051 0.92450388 500.19031 0.93222665 500.81531 0.99222659 C 511.6183 2.0262256 522.40645 3.24454 533.22644 4.0625392 C 547.20743 5.1205381 561.20534 6.0217938 575.21033 6.6977931 C 596.35631 7.7187921 617.51031 8.6806102 638.67029 9.3096096 C 662.45627 10.017609 686.25129 10.482778 710.04627 10.781778 C 755.01823 11.348777 799.99037 11.350755 844.89832 8.386758 C 854.99631 7.7207587 865.05099 6.3781905 875.12098 5.3061915 C 877.13798 5.0921918 879.13348 4.6867888 881.30848 4.3437892 C 881.29848 10.232783 882.36194 15.610802 884.74793 20.676797 C 887.19393 25.870792 890.73 30.12948 895.68299 33.148477 C 900.54199 36.112474 905.9806 36.701642 911.3246 36.766642 C 910.7806 48.39263 909.96172 59.688193 909.77772 70.994181 C 909.30872 99.779153 908.96852 128.56901 908.86952 157.35698 C 908.79152 180.35295 909.22638 203.34945 910.47938 226.31743 C 910.73338 231.00842 911.14138 235.68869 911.50038 240.68169 C 909.09938 240.99469 906.85823 241.19835 904.65223 241.59135 C 893.86524 243.51035 886.54086 249.52223 883.52186 260.18022 C 882.37086 264.24522 881.88249 268.50174 881.14149 272.67973 C 880.92549 273.89473 880.88252 275.14113 880.74452 276.53813 z M 870.87586 258.53667 C 871.78086 256.19967 872.71256 253.66543 873.74256 251.17143 C 875.01956 248.07844 876.29762 244.98017 877.71961 241.95317 C 880.90861 235.16218 886.2218 230.57077 893.00379 227.59477 C 895.47179 226.51177 897.9892 225.54457 900.4452 224.54057 C 900.1852 219.33958 899.76931 214.29274 899.71131 209.24174 C 899.56531 196.56876 899.38162 183.89071 899.57362 171.22172 C 900.14962 133.19976 900.9046 95.182624 901.5746 57.161662 C 901.6326 53.929665 901.58192 50.694166 901.58192 47.432169 C 894.28193 46.18317 889.10542 41.986699 884.24842 37.305704 C 879.08043 32.322709 874.6125 26.752104 870.6825 20.74711 C 870.38951 20.29911 870.06552 19.870508 869.70252 19.355508 C 867.17753 19.587508 864.66525 19.83945 862.15125 20.04545 C 844.28127 21.514448 826.36353 21.991438 808.45155 21.983438 C 775.15358 21.968438 741.85342 21.807918 708.55945 21.275919 C 677.16649 20.775919 645.78033 19.799293 614.39637 18.885293 C 592.05739 18.235294 569.72353 17.377937 547.38855 16.545938 C 536.35756 16.134938 525.33304 15.569023 514.30505 15.084024 C 513.32206 15.041024 512.3354 15.079629 511.0824 15.079629 C 506.0124 28.710616 497.97934 39.834272 484.16736 45.532267 C 484.42136 51.196261 484.85509 56.516448 484.86609 61.837443 C 484.93409 94.61141 484.95399 127.38719 484.89099 160.16215 C 484.84999 181.98113 484.64553 203.80118 484.51453 225.62016 C 484.51153 226.07316 484.56746 226.53061 484.51746 226.97661 C 484.36346 228.34861 484.95025 229.10923 486.23425 229.63823 C 488.23725 230.46223 490.18721 231.43315 492.11121 232.43315 C 498.4142 235.70415 503.13623 240.57454 506.40222 246.85454 C 508.32022 250.54253 510.14925 254.27406 512.00525 257.95805 C 631.62113 249.09406 751.13798 247.54968 870.87586 258.53667 z M 869.08583 257.46733 C 866.30883 255.19033 864.41179 251.2582 864.67079 248.13921 C 866.55078 247.81521 868.33608 247.50515 870.32508 247.16215 C 869.83008 250.82615 869.97382 254.13933 869.08583 257.46733 z M 867.20057 257.3018 C 865.94257 257.0658 865.24494 256.93648 864.60194 256.81548 L 864.60194 253.75249 L 864.96522 253.60747 C 865.61322 254.67847 866.26057 255.7478 867.20057 257.3018 z M 512.81384 256.91215 C 511.02585 253.37416 509.39171 250.04818 507.67371 246.76518 C 505.21071 242.05619 502.11602 237.77528 497.72302 234.74028 C 494.54203 232.54328 491.04455 230.78334 487.59656 229.00835 C 486.31556 228.34835 485.60264 227.71505 485.65564 226.18706 C 485.74464 223.65506 485.61567 221.11658 485.63367 218.58159 C 485.89967 179.19263 486.30153 139.80406 486.38953 100.4141 C 486.42653 83.488121 485.81651 66.562277 485.49451 49.635294 C 485.47451 48.568295 485.40209 47.499164 485.34509 46.203165 C 498.91908 40.325171 506.80404 29.380714 511.91003 16.179727 C 513.04603 16.179727 513.85548 16.149122 514.66248 16.184121 C 527.49946 16.745121 540.33323 17.383227 553.17322 17.867227 C 576.7742 18.757226 600.37533 19.666786 623.9823 20.364786 C 648.22428 21.082785 672.47261 21.660415 696.72059 22.109415 C 723.41156 22.604414 750.10569 23.045399 776.80067 23.193399 C 795.07765 23.295399 813.35918 22.996531 831.63416 22.604532 C 842.12115 22.378532 852.59658 21.616305 863.07557 21.072305 C 865.13157 20.966305 867.18223 20.750907 869.19422 20.588907 C 873.34422 27.1189 878.05303 32.962616 883.49403 38.18461 C 888.28702 42.783606 893.42456 46.898198 900.43055 48.535197 C 900.43055 51.241194 900.47369 53.939321 900.42469 56.634318 C 899.77069 92.304282 899.02406 127.97312 898.47206 163.64409 C 898.16706 183.28507 897.63164 202.93912 899.23963 222.5601 C 899.27463 222.9881 899.16545 223.43107 899.12245 223.87407 C 898.61045 224.08907 898.20351 224.27617 897.78651 224.43217 C 892.50751 226.41117 887.43443 228.7376 883.16444 232.56059 C 882.46244 233.18859 881.43182 233.50396 880.50282 233.81596 C 876.04482 235.31196 871.57342 236.76143 867.10243 238.21342 C 866.34643 238.45942 865.56736 238.63427 864.48036 238.92827 L 864.48036 235.75835 C 864.48036 228.42335 864.69707 221.07885 864.38807 213.75786 C 864.23807 210.23386 865.1527 207.96468 868.3827 206.45268 C 870.2887 205.56068 871.96262 204.17127 873.69862 203.03227 C 873.11662 201.89827 872.7167 201.11715 872.2367 200.18315 C 873.9457 199.57415 875.49441 199.02535 877.3534 198.36235 C 876.5384 197.63035 876.04845 197.12861 875.49745 196.70561 C 873.84745 195.43861 872.212 194.14426 870.495 192.97026 C 869.17001 192.06326 868.69688 191.02443 869.52088 189.40043 C 871.49188 189.16843 873.54547 188.9272 875.64247 188.6812 C 876.59406 186.3117 877.52142 183.99675 878.45204 181.68217 C 877.51748 181.65168 877.3519 182.41667 877.08973 183.0562 C 876.44373 184.63219 875.81672 186.21633 875.17372 187.82133 C 872.96272 188.01133 870.89873 188.67543 868.46473 187.79643 C 869.37473 186.30843 870.76983 186.06211 871.91883 185.53911 C 873.00083 185.04711 873.66358 184.44266 873.78358 183.16166 C 873.97358 181.14667 874.35037 179.14908 874.64637 177.14409 C 874.05737 178.21809 873.79556 179.35193 873.53456 180.48393 C 872.63656 184.37993 872.63832 184.38214 868.79432 185.72514 C 868.54932 185.81114 868.27888 185.82702 868.02088 185.87602 C 868.13488 185.74502 868.24873 185.61491 868.36073 185.48491 C 867.38273 184.69991 866.40294 183.91484 865.35194 183.07084 C 866.18994 181.69485 866.54931 180.24693 865.10731 178.98393 C 864.27131 178.24993 863.25189 178.19099 862.3329 178.77299 C 860.5179 179.92199 861.24095 181.57122 861.64295 183.20122 C 860.71795 184.00721 859.78067 184.82287 858.92567 185.56987 C 856.16767 184.54787 854.74162 182.71237 854.57362 179.86137 C 854.51262 178.82737 854.11691 177.81431 853.85291 176.69731 C 853.68191 176.89631 853.57999 176.95897 853.57899 177.02397 C 853.57699 177.29397 853.5944 177.56649 853.6244 177.83549 C 853.9884 181.04249 853.97737 184.40033 857.56336 186.11332 C 858.51836 186.56932 858.40401 187.38364 857.57801 188.16264 C 855.85901 187.99464 854.07167 187.8203 852.17567 187.6353 C 851.51067 186.1073 850.8575 184.62909 850.2245 183.14409 C 849.96318 182.53004 849.6533 182.03337 848.86659 182.22416 C 849.54659 183.75816 850.32428 185.26135 850.87928 186.84135 C 851.29728 188.03335 851.99385 188.57942 853.20985 188.71342 C 854.62985 188.87042 856.03627 189.14617 857.31727 189.34916 C 858.24427 191.38816 857.66112 192.7584 856.26112 194.0894 C 854.51012 195.7534 852.94021 197.60947 850.98622 199.71147 C 852.6367 200.60598 854.01069 201.34968 855.38514 202.09477 C 856.75689 205.62198 858.77175 208.75618 861.19178 211.64262 C 861.41428 211.96985 861.63625 212.29784 861.85829 212.62553 C 861.63637 212.29785 861.41498 211.96957 861.19325 211.64262 L 861.27381 211.74663 C 860.82981 210.78963 860.44862 209.79686 859.92762 208.88286 C 858.97762 207.21386 857.94613 205.5908 856.94813 203.9478 C 857.07113 203.8258 857.19427 203.70505 857.31727 203.58305 C 858.27527 203.94805 859.23283 204.31376 860.18983 204.67876 C 859.40983 203.97976 858.62904 203.28064 857.66004 202.41264 C 858.44404 200.32964 859.25269 198.18075 860.09168 195.94975 C 861.31168 196.66375 862.29463 197.24113 863.40663 197.89213 C 863.40663 200.15313 863.43779 202.48592 863.37879 204.81792 C 863.36681 205.29033 863.0149 205.75623 862.81776 206.22563 L 862.81629 206.22709 L 862.81922 206.23002 C 862.81854 206.22864 862.81845 206.22702 862.81776 206.22563 C 862.81676 206.22563 862.92469 206.3018 862.92469 206.3018 C 862.89339 206.28584 862.86224 206.26943 862.83094 206.25346 C 863.98594 208.61661 863.31493 211.03656 863.28504 213.48393 C 862.79919 213.38714 862.55373 213.33748 862.30799 213.28764 C 862.32773 213.3168 862.34685 213.34638 862.36659 213.37553 C 862.36735 213.37666 862.36875 213.3788 862.36952 213.37993 L 862.26551 213.27885 C 863.43551 215.41285 863.46778 217.72213 863.44178 220.08012 C 863.38278 225.69312 863.4242 231.31037 863.4242 236.92436 L 863.4242 239.66948 C 862.29421 240.04648 861.34146 240.30583 860.43446 240.67583 C 853.92346 243.32782 847.07617 245.27168 841.42518 249.74467 C 840.73318 250.29167 839.85955 250.63347 839.03455 250.98247 C 834.07556 253.07547 829.04357 254.71941 823.53358 253.54741 C 822.74858 253.37941 821.90908 253.46729 821.09608 253.42729 C 804.10609 252.57929 787.12336 251.53127 770.12537 250.92827 C 739.9144 249.85527 709.68584 249.5404 679.45887 249.8604 C 658.28389 250.0844 637.10175 250.2851 615.94178 251.0601 C 590.5358 251.9891 565.14915 253.48711 539.75818 254.8101 C 534.25019 255.0971 528.75964 255.69339 523.25964 256.13139 C 519.76465 256.40939 516.26784 256.65416 512.81384 256.91215 z M 855.38514 202.09477 C 855.38083 202.0837 855.37479 202.07363 855.37049 202.06254 C 854.45564 201.18209 853.54375 200.30546 852.4994 199.30131 C 854.4924 197.42032 856.09471 195.27606 858.46571 193.66606 C 858.68771 194.19506 859.00867 194.57743 858.92567 194.81743 C 858.15367 197.03142 857.34148 199.23337 856.45448 201.40336 C 856.32848 201.71336 855.73624 201.83064 855.36024 202.03764 L 855.43202 202.11967 C 855.41744 202.11177 855.39972 202.10268 855.38514 202.09477 z M 863.32459 256.84184 C 859.7956 256.46184 856.69959 256.12828 853.09559 255.74028 C 854.29359 254.35528 855.14846 253.36791 856.03846 252.33891 C 857.42946 253.07591 858.65004 253.66154 859.80604 254.35454 C 860.90004 255.01054 862.2746 255.30184 863.32459 256.84184 z M 850.8075 255.5894 C 849.97506 255.5672 848.92692 254.85343 846.88905 253.59868 C 846.82505 253.55868 846.80825 253.4409 846.67225 253.1519 C 848.10525 252.0539 849.57851 250.92724 851.01551 249.82524 C 851.75751 250.19624 852.33593 250.44467 852.87293 250.76567 C 853.46393 251.11867 854.01713 251.53815 854.59413 251.93315 C 852.59163 254.50434 851.87779 255.61795 850.8075 255.5894 z M 863.1869 255.17631 C 860.9779 253.98032 859.08392 252.95542 856.78993 251.71342 C 858.89392 250.67743 860.47689 249.89923 862.02088 249.13823 C 863.61288 251.16323 863.6129 251.16332 863.1869 255.17631 z M 846.73963 255.11772 C 846.45663 255.04372 846.17402 254.96714 845.89002 254.89214 C 845.91802 254.82514 845.94598 254.70024 845.97498 254.70024 C 846.24998 254.70024 846.52569 254.72086 846.79969 254.73686 C 846.77969 254.86286 846.76063 254.99072 846.73963 255.11772 z M 870.97401 254.93462 C 870.71301 252.97862 870.87681 251.13557 871.02381 249.29057 C 871.24581 246.49258 871.25954 246.47056 874.61854 245.70756 C 873.35854 248.89756 872.16701 251.91662 870.97401 254.93462 z M 841.03114 254.72075 C 838.67248 254.70419 835.87928 254.38169 833.76991 253.81694 C 835.3409 253.24994 836.63714 252.95531 837.76014 252.34331 C 840.71114 250.73231 842.76213 252.37036 845.21913 254.17436 C 844.43775 254.56067 842.86565 254.73363 841.03114 254.72075 z M 845.38905 253.00835 C 844.22105 252.10635 842.69367 251.97982 841.77967 250.59282 C 842.84067 249.83382 843.86515 249.24047 844.71815 248.46147 C 846.01215 247.27947 847.22932 247.30582 848.54432 248.34282 C 848.95532 248.66582 849.40545 248.93662 850.10145 249.41362 C 848.44945 250.67362 846.98005 251.79435 845.38905 253.00835 z M 855.48475 251.1978 C 854.37175 250.5808 853.44763 250.06927 851.98963 249.26128 C 855.00363 247.74828 857.43981 246.52531 860.04481 245.21831 C 860.65281 246.22331 861.13882 247.02667 861.75282 248.03667 C 859.52482 249.16067 857.48475 250.1898 855.48475 251.1978 z M 850.79872 248.50542 C 849.99983 248.46717 849.33162 247.8594 847.99793 246.50883 C 851.41793 245.07784 854.77097 243.67242 858.20497 242.23442 C 858.69497 243.04242 859.04974 243.62896 859.56874 244.48296 C 857.26674 245.63795 855.27276 246.64262 853.27577 247.64262 C 852.1212 248.22012 851.42007 248.53516 850.79872 248.50542 z M 862.82362 247.3936 C 862.42062 246.6256 862.01802 245.85706 861.53602 244.93706 C 862.17302 244.69406 862.6289 244.52017 863.1869 244.30717 L 863.1869 247.32182 L 862.82362 247.3936 z M 864.63124 247.26323 L 864.63124 243.34624 C 866.64723 242.61424 868.55743 241.91998 870.85243 241.08598 C 870.67243 243.05298 870.53654 244.53609 870.38954 246.14409 C 868.43654 246.52409 866.68523 246.86423 864.63124 247.26323 z M 871.71815 245.37065 C 871.34915 240.51066 872.28316 239.70482 876.80116 240.84282 C 876.29616 243.54582 874.59515 244.94965 871.71815 245.37065 z M 861.36903 243.79594 C 860.38374 243.80428 860.08566 242.99834 859.94813 241.77153 C 860.98313 241.45153 862.02436 241.13027 863.08436 240.80327 C 863.65836 242.34827 863.51112 243.31612 861.99012 243.70512 C 861.75715 243.76497 861.55149 243.7944 861.36903 243.79594 z M 864.64442 242.38969 L 864.64442 239.90971 C 866.67042 239.23971 868.68855 238.57065 870.80555 237.87065 C 871.11655 238.96865 871.33396 239.94134 870.10096 240.42534 C 868.37196 241.10234 866.60842 241.68669 864.64442 242.38969 z M 871.86756 239.90385 C 872.23156 238.80285 872.28358 237.57993 872.76258 237.37993 C 875.24858 236.33993 877.81319 235.44476 880.90418 234.78276 C 879.85919 236.33476 879.15836 237.46658 878.35536 238.51958 C 878.06136 238.90658 877.55506 239.29579 877.09706 239.36479 C 875.53206 239.60479 873.94456 239.70285 871.86756 239.90385 z M 864.55213 208.11821 C 864.64313 205.74121 863.95304 203.77738 865.05604 201.92338 C 863.70604 198.50739 864.10869 197.45647 867.59168 195.58647 C 868.48668 196.87547 869.38863 198.17756 870.36463 199.58256 C 869.54163 200.08256 868.88682 200.47902 868.23182 200.87602 C 869.19682 200.79902 870.16099 200.72172 871.20399 200.63872 C 871.64499 201.38272 872.03812 202.04762 872.49012 202.80961 C 869.85112 204.57261 867.49113 206.45721 864.55213 208.11821 z M 866.60877 201.40336 C 867.19075 201.19872 867.77435 200.9947 868.35633 200.79106 C 867.77683 200.99383 867.19707 201.1962 866.61756 201.39897 L 866.60877 201.40336 z M 871.6742 199.38481 C 868.58021 195.46681 868.44191 195.19342 868.64491 192.94243 C 871.1199 194.71642 873.2509 196.24575 875.8329 198.09575 C 874.0239 198.65675 872.7932 199.03881 871.6742 199.38481 z M 878.45643 181.6309 L 878.45643 180.49125 L 878.18983 180.51762 C 878.27608 180.88467 878.36314 181.2549 878.45643 181.6309 z M 848.87098 180.06206 C 848.87098 180.06206 848.9221 180.04367 848.96766 180.0269 C 848.9686 180.00884 848.96965 179.99076 848.97059 179.9727 L 848.87098 180.06206 z " />
  </g>
</svg>
