<?xml version="1.0" encoding="UTF-8" standalone="no"?>
<!-- Created with Inkscape (http://www.inkscape.org/) -->

<svg
   version="1.1"
   id="svg421"
   width="588.35419"
   height="367.54926"
   viewBox="0 0 588.35418 367.54924"
   sodipodi:docname="plaque.svg"
   inkscape:version="1.2.2 (732a01da63, 2022-12-09, custom)"
   xmlns:inkscape="http://www.inkscape.org/namespaces/inkscape"
   xmlns:sodipodi="http://sodipodi.sourceforge.net/DTD/sodipodi-0.dtd"
   xmlns="http://www.w3.org/2000/svg"
   xmlns:svg="http://www.w3.org/2000/svg">
  <defs
     id="defs425">
    <clipPath
       clipPathUnits="userSpaceOnUse"
       id="clipPath735">
      <g
         id="g741">
        <g
           id="g739">
          <path
             d="M 0,915.398 H 911.501 V 0 H 0 Z"
             id="path737" />
        </g>
      </g>
    </clipPath>
    <clipPath
       clipPathUnits="userSpaceOnUse"
       id="clipPath750">
      <g
         id="g756">
        <g
           id="g754">
          <path
             d="M 0,915.398 H 911.501 V 0 H 0 Z"
             id="path752" />
        </g>
      </g>
    </clipPath>
    <clipPath
       clipPathUnits="userSpaceOnUse"
       id="clipPath765">
      <g
         id="g771">
        <g
           id="g769">
          <path
             d="M 0,915.398 H 911.501 V 0 H 0 Z"
             id="path767" />
        </g>
      </g>
    </clipPath>
    <clipPath
       clipPathUnits="userSpaceOnUse"
       id="clipPath780">
      <g
         id="g786">
        <g
           id="g784">
          <path
             d="M 0,915.398 H 911.501 V 0 H 0 Z"
             id="path782" />
        </g>
      </g>
    </clipPath>
    <clipPath
       clipPathUnits="userSpaceOnUse"
       id="clipPath795">
      <g
         id="g801">
        <g
           id="g799">
          <path
             d="M 0,915.398 H 911.501 V 0 H 0 Z"
             id="path797" />
        </g>
      </g>
    </clipPath>
    <clipPath
       clipPathUnits="userSpaceOnUse"
       id="clipPath810">
      <g
         id="g816">
        <g
           id="g814">
          <path
             d="M 0,915.398 H 911.501 V 0 H 0 Z"
             id="path812" />
        </g>
      </g>
    </clipPath>
    <clipPath
       clipPathUnits="userSpaceOnUse"
       id="clipPath825">
      <g
         id="g831">
        <g
           id="g829">
          <path
             d="M 0,915.398 H 911.501 V 0 H 0 Z"
             id="path827" />
        </g>
      </g>
    </clipPath>
    <clipPath
       clipPathUnits="userSpaceOnUse"
       id="clipPath840">
      <g
         id="g846">
        <g
           id="g844">
          <path
             d="M 0,915.398 H 911.501 V 0 H 0 Z"
             id="path842" />
        </g>
      </g>
    </clipPath>
    <clipPath
       clipPathUnits="userSpaceOnUse"
       id="clipPath855">
      <g
         id="g861">
        <g
           id="g859">
          <path
             d="M 0,915.398 H 911.501 V 0 H 0 Z"
             id="path857" />
        </g>
      </g>
    </clipPath>
    <clipPath
       clipPathUnits="userSpaceOnUse"
       id="clipPath870">
      <g
         id="g876">
        <g
           id="g874">
          <path
             d="M 0,915.398 H 911.501 V 0 H 0 Z"
             id="path872" />
        </g>
      </g>
    </clipPath>
    <clipPath
       clipPathUnits="userSpaceOnUse"
       id="clipPath885">
      <g
         id="g891">
        <g
           id="g889">
          <path
             d="M 0,915.398 H 911.501 V 0 H 0 Z"
             id="path887" />
        </g>
      </g>
    </clipPath>
    <clipPath
       clipPathUnits="userSpaceOnUse"
       id="clipPath900">
      <g
         id="g906">
        <g
           id="g904">
          <path
             d="M 0,915.398 H 911.501 V 0 H 0 Z"
             id="path902" />
        </g>
      </g>
    </clipPath>
    <clipPath
       clipPathUnits="userSpaceOnUse"
       id="clipPath915">
      <g
         id="g921">
        <g
           id="g919">
          <path
             d="M 0,915.398 H 911.501 V 0 H 0 Z"
             id="path917" />
        </g>
      </g>
    </clipPath>
    <clipPath
       clipPathUnits="userSpaceOnUse"
       id="clipPath930">
      <g
         id="g936">
        <g
           id="g934">
          <path
             d="M 0,915.398 H 911.501 V 0 H 0 Z"
             id="path932" />
        </g>
      </g>
    </clipPath>
    <clipPath
       clipPathUnits="userSpaceOnUse"
       id="clipPath945">
      <g
         id="g951">
        <g
           id="g949">
          <path
             d="M 0,915.398 H 911.501 V 0 H 0 Z"
             id="path947" />
        </g>
      </g>
    </clipPath>
    <clipPath
       clipPathUnits="userSpaceOnUse"
       id="clipPath960">
      <g
         id="g966">
        <g
           id="g964">
          <path
             d="M 0,915.398 H 911.501 V 0 H 0 Z"
             id="path962" />
        </g>
      </g>
    </clipPath>
    <clipPath
       clipPathUnits="userSpaceOnUse"
       id="clipPath975">
      <g
         id="g981">
        <g
           id="g979">
          <path
             d="M 0,915.398 H 911.501 V 0 H 0 Z"
             id="path977" />
        </g>
      </g>
    </clipPath>
    <clipPath
       clipPathUnits="userSpaceOnUse"
       id="clipPath990">
      <g
         id="g996">
        <g
           id="g994">
          <path
             d="M 0,915.398 H 911.501 V 0 H 0 Z"
             id="path992" />
        </g>
      </g>
    </clipPath>
    <clipPath
       clipPathUnits="userSpaceOnUse"
       id="clipPath1005">
      <g
         id="g1011">
        <g
           id="g1009">
          <path
             d="M 0,915.398 H 911.501 V 0 H 0 Z"
             id="path1007" />
        </g>
      </g>
    </clipPath>
  </defs>
  <sodipodi:namedview
     id="namedview423"
     pagecolor="#505050"
     bordercolor="#eeeeee"
     borderopacity="1"
     inkscape:showpageshadow="0"
     inkscape:pageopacity="0"
     inkscape:pagecheckerboard="0"
     inkscape:deskcolor="#505050"
     showgrid="false"
     inkscape:zoom="2.1439303"
     inkscape:cx="294.31926"
     inkscape:cy="184.00784"
     inkscape:window-width="1920"
     inkscape:window-height="1016"
     inkscape:window-x="0"
     inkscape:window-y="0"
     inkscape:window-maximized="1"
     inkscape:current-layer="g429" />
  <g
     id="g429"
     inkscape:groupmode="layer"
     inkscape:label="Page 1"
     transform="matrix(1.3333333,0,0,-1.3333333,-626.98029,368.7175)">
    <g
       id="g1057"
       inkscape:export-filename="../67dee17a/placa.svg"
       inkscape:export-xdpi="96"
       inkscape:export-ydpi="96">
      <path
         d="m 511.0829,15.0791 c 1.253,0 2.239,-0.038 3.222,0.005 11.028,0.485 22.052,1.051 33.083,1.462 22.335,0.832 44.669,1.689 67.008,2.339 31.384,0.914 62.77,1.891 94.163,2.391 33.294,0.532 66.595,0.692 99.893,0.707 17.912,0.008 35.83,-0.469 53.7,-1.938 2.514,-0.206 5.025,-0.458 7.55,-0.69 0.363,0.515 0.687,0.944 0.98,1.392 3.93,6.005 8.399,11.575 13.567,16.558 4.857,4.681 10.033,8.878 17.333,10.127 0,3.262 0.05,6.497 -0.008,9.729 -0.67,38.021 -1.424,76.039 -2,114.061 -0.192,12.669 -0.008,25.347 0.138,38.02 0.058,5.051 0.474,10.098 0.734,15.299 -2.456,1.004 -4.974,1.971 -7.442,3.054 -6.782,2.976 -12.095,7.567 -15.284,14.358 -1.422,3.027 -2.7,6.125 -3.977,9.218 -1.03,2.494 -1.962,5.029 -2.867,7.366 -119.738,-10.987 -239.254,-9.443 -358.87,-0.579 -1.856,-3.684 -3.686,-7.415 -5.604,-11.103 -3.266,-6.28 -7.988,-11.151 -14.291,-14.422 -1.924,-1 -3.873,-1.971 -5.876,-2.795 -1.284,-0.529 -1.871,-1.289 -1.717,-2.661 0.05,-0.446 -0.007,-0.904 -0.004,-1.357 0.131,-21.819 0.336,-43.639 0.377,-65.458 0.063,-32.775 0.043,-65.55 -0.025,-98.324 -0.011,-5.321 -0.445,-10.642 -0.699,-16.306 13.812,-5.698 21.846,-16.822 26.916,-30.453 m 400.418,225.603 c -0.359,-4.993 -0.768,-9.674 -1.022,-14.365 -1.253,-22.968 -1.687,-45.964 -1.609,-68.96 0.099,-28.788 0.439,-57.578 0.908,-86.363 0.184,-11.306 1.002,-22.601 1.546,-34.227 -5.344,-0.065 -10.782,-0.654 -15.641,-3.618 -4.953,-3.019 -8.489,-7.278 -10.935,-12.472 -2.386,-5.066 -3.449,-10.444 -3.439,-16.333 -2.175,0.343 -4.171,0.748 -6.188,0.962 -10.07,1.072 -20.125,2.414 -30.223,3.08 -44.908,2.964 -89.879,2.962 -134.851,2.395 -23.795,-0.299 -47.59,-0.764 -71.376,-1.472 -21.16,-0.629 -42.314,-1.59 -63.46,-2.611 -14.005,-0.676 -28.003,-1.578 -41.984,-2.636 -10.82,-0.818 -21.609,-2.036 -32.412,-3.07 -0.625,-0.06 -1.254,-0.068 -2.195,-0.116 -0.114,0.998 -0.254,1.947 -0.325,2.901 -0.429,5.789 -1.117,11.526 -3.089,17.039 -3.302,9.23 -9.85,14.47 -19.47,15.968 -1.687,0.263 -3.382,0.477 -5.021,0.705 -0.124,0.225 -0.287,0.381 -0.277,0.524 1.127,15.455 0.991,30.938 0.996,46.416 0.004,16.206 -0.07,32.413 -0.208,48.618 -0.295,34.402 -0.654,68.803 -0.983,103.205 -0.016,1.708 -0.002,3.416 -0.002,5.324 1.45,0.187 2.685,0.349 3.92,0.505 10.169,1.285 17.489,6.424 21.545,15.963 1.783,4.196 2.74,8.609 3.349,13.109 0.118,0.868 0.243,1.737 0.384,2.744 4.397,-0.508 8.508,-1.032 12.63,-1.452 8.728,-0.889 17.45,-1.885 26.196,-2.549 14.792,-1.124 29.592,-2.173 44.405,-2.976 15.718,-0.852 31.448,-1.585 47.184,-1.998 22.972,-0.605 45.952,-1.065 68.931,-1.243 27.693,-0.216 55.376,0.479 83.032,1.915 23.948,1.244 47.838,3.221 71.601,6.506 8.148,1.127 16.242,2.645 24.361,3.981 0.882,0.145 1.766,0.272 2.965,0.457 0.138,-1.397 0.181,-2.644 0.397,-3.859 0.741,-4.178 1.23,-8.434 2.381,-12.499 3.019,-10.658 10.343,-16.67 21.13,-18.589 2.206,-0.393 4.448,-0.596 6.849,-0.909"
         style="fill:#000000;fill-opacity:1;fill-rule:nonzero;stroke:none"
         id="path453"
         clip-path="url(#clipPath840)" />
      <path
         d="m 878.457,181.6718 c -0.932,2.318 -1.862,4.636 -2.815,7.009 -2.097,0.246 -4.15,0.487 -6.121,0.719 -0.824,1.624 -0.351,2.663 0.974,3.57 1.717,1.174 3.352,2.469 5.002,3.736 0.551,0.423 1.042,0.924 1.857,1.656 -1.859,0.663 -3.408,1.213 -5.117,1.822 0.48,0.934 0.88,1.714 1.462,2.848 -1.736,1.139 -3.411,2.529 -5.317,3.421 -3.23,1.512 -4.144,3.781 -3.994,7.305 0.309,7.321 0.093,14.665 0.093,22 v 3.171 c 1.087,-0.294 1.865,-0.469 2.621,-0.715 4.471,-1.452 8.943,-2.902 13.401,-4.398 0.929,-0.312 1.96,-0.627 2.662,-1.255 4.27,-3.823 9.343,-6.15 14.622,-8.129 0.417,-0.156 0.824,-0.343 1.336,-0.558 0.043,-0.443 0.152,-0.885 0.117,-1.313 -1.608,-19.621 -1.073,-39.276 -0.768,-58.917 0.552,-35.671 1.298,-71.339 1.952,-107.009 0.049,-2.695 0.006,-5.393 0.006,-8.099 -7.006,-1.637 -12.143,-5.752 -16.936,-10.351 -5.441,-5.222 -10.15,-11.066 -14.3,-17.596 -2.012,0.162 -4.062,0.377 -6.118,0.483 -10.479,0.544 -20.955,1.307 -31.442,1.533 -18.275,0.392 -36.557,0.691 -54.834,0.589 -26.695,-0.148 -53.389,-0.589 -80.08,-1.084 -24.248,-0.449 -48.495,-1.027 -72.737,-1.745 -23.607,-0.698 -47.209,-1.607 -70.81,-2.497 -12.84,-0.484 -25.674,-1.122 -38.511,-1.683 -0.807,-0.035 -1.616,-0.005 -2.752,-0.005 -5.106,13.201 -12.991,24.146 -26.565,30.024 0.057,1.296 0.129,2.364 0.149,3.431 0.322,16.927 0.933,33.854 0.896,50.78 -0.088,39.39 -0.491,78.778 -0.757,118.167 -0.018,2.535 0.112,5.073 0.023,7.605 -0.053,1.528 0.659,2.162 1.94,2.822 3.448,1.775 6.946,3.535 10.127,5.732 4.393,3.035 7.488,7.315 9.951,12.024 1.718,3.283 3.352,6.61 5.14,10.148 3.454,-0.258 6.951,-0.504 10.446,-0.782 5.5,-0.438 10.99,-1.034 16.498,-1.321 25.391,-1.323 50.778,-2.821 76.184,-3.75 21.16,-0.775 42.342,-0.976 63.517,-1.2 30.227,-0.32 60.455,-0.005 90.666,1.068 16.998,0.603 33.981,1.651 50.971,2.499 0.813,0.04 1.652,-0.048 2.437,0.12 5.51,1.172 10.542,-0.472 15.501,-2.565 0.825,-0.349 1.699,-0.69 2.391,-1.237 5.651,-4.473 12.499,-6.417 19.01,-9.069 0.907,-0.37 1.859,-0.63 2.989,-1.007 v -2.745 c 0,-5.614 -0.041,-11.23 0.018,-16.843 0.026,-2.358 -0.006,-4.668 -1.176,-6.802 l 0.103,0.1 c -0.392,-0.579 -0.784,-1.158 -1.177,-1.736 l 0.081,0.103 c -2.471,-2.93 -4.525,-6.116 -5.913,-9.708 l 0.072,0.082 c -1.389,-0.753 -2.778,-1.505 -4.446,-2.409 1.954,-2.102 3.524,-3.957 5.275,-5.621 1.4,-1.331 1.984,-2.702 1.057,-4.741 -1.281,-0.203 -2.688,-0.478 -4.108,-0.635 -1.216,-0.134 -1.912,-0.681 -2.33,-1.873 -0.555,-1.58 -1.334,-3.082 -2.014,-4.616 0.059,-0.74 0.114,-1.481 0.164,-2.221 -0.006,0 -0.159,0.058 -0.159,0.058 l 0.1,-0.089 c -0.039,0.75 -0.078,1.501 -0.117,2.251 0.798,-0.201 1.108,0.302 1.371,0.92 0.633,1.485 1.286,2.964 1.951,4.492 1.896,0.185 3.683,0.359 5.402,0.527 0.826,-0.779 0.941,-1.593 -0.014,-2.049 -3.586,-1.713 -3.576,-5.072 -3.94,-8.279 -0.03,-0.269 -0.047,-0.541 -0.045,-0.811 0.001,-0.065 0.103,-0.128 0.274,-0.327 0.264,1.117 0.659,2.131 0.72,3.165 0.168,2.851 1.595,4.686 4.353,5.708 0.855,-0.747 1.792,-1.563 2.717,-2.369 -0.402,-1.63 -1.125,-3.279 0.69,-4.428 0.919,-0.582 1.938,-0.523 2.774,0.211 1.442,1.263 1.083,2.711 0.245,4.087 1.051,0.844 2.03,1.629 3.008,2.414 -0.112,0.13 -0.225,0.26 -0.339,0.391 0.258,-0.049 0.528,-0.065 0.773,-0.151 3.844,-1.343 3.843,-1.345 4.741,-5.241 0.261,-1.132 0.522,-2.265 1.111,-3.339 -0.296,2.005 -0.673,4.002 -0.863,6.017 -0.12,1.281 -0.782,1.885 -1.864,2.377 -1.149,0.523 -2.545,0.77 -3.455,2.258 2.434,0.879 4.499,0.214 6.71,0.024 0.643,-1.605 1.269,-3.189 1.915,-4.765 0.264,-0.644 0.427,-1.419 1.379,-1.377 -0.098,-0.393 -0.188,-0.778 -0.278,-1.161 l 0.267,-0.027 z"
         style="fill:#000000;fill-opacity:1;fill-rule:nonzero;stroke:none"
         id="path457"
         clip-path="url(#clipPath885)" />
      <path
         d="m 864.6708,248.1386 c -0.259,3.119 1.638,7.052 4.415,9.329 0.888,-3.328 0.744,-6.641 1.239,-10.305 -1.989,0.343 -3.774,0.652 -5.654,0.976"
         style="fill:#000000;fill-opacity:1;fill-rule:nonzero;stroke:none"
         id="path461"
         clip-path="url(#clipPath735)" />
      <path
         d="m 862.8163,206.2265 c 0.197,-0.47 0.551,-0.935 0.563,-1.408 0.059,-2.332 0.027,-4.666 0.027,-6.927 -1.112,-0.651 -2.094,-1.228 -3.314,-1.942 -0.839,2.231 -1.648,4.38 -2.432,6.463 0.969,0.868 1.749,1.567 2.529,2.266 l -0.094,-0.091 c 0.576,0.392 1.154,0.783 1.73,1.174 l -0.107,-0.075 c 0.402,0.205 0.804,0.411 1.206,0.616 z"
         style="fill:#000000;fill-opacity:1;fill-rule:nonzero;stroke:none"
         id="path465"
         clip-path="url(#clipPath1005)" />
      <path
         d="m 865.0556,201.9238 c -1.103,1.854 -0.413,3.817 -0.504,6.194 2.939,-1.661 5.3,-3.545 7.939,-5.308 -0.452,-0.762 -0.846,-1.427 -1.287,-2.171 -1.043,0.083 -2.007,0.16 -2.972,0.237 l 0.127,-0.086 c -0.583,0.204 -1.167,0.408 -1.75,0.613 l 0.123,-0.063 -1.746,0.609 z"
         style="fill:#000000;fill-opacity:1;fill-rule:nonzero;stroke:none"
         id="path469"
         clip-path="url(#clipPath975)" />
      <path
         d="m 859.5693,244.4834 c -0.519,-0.854 -0.875,-1.441 -1.365,-2.249 -3.434,1.438 -6.786,2.843 -10.206,4.274 2.371,2.401 2.638,2.454 5.277,1.134 1.997,-1 3.992,-2.004 6.294,-3.159"
         style="fill:#000000;fill-opacity:1;fill-rule:nonzero;stroke:none"
         id="path473"
         clip-path="url(#clipPath960)" />
      <path
         d="m 851.9892,249.2607 c 1.458,0.808 2.383,1.32 3.496,1.937 2,-1.008 4.039,-2.037 6.267,-3.161 -0.614,-1.01 -1.1,-1.814 -1.708,-2.819 -2.605,1.307 -5.041,2.53 -8.055,4.043"
         style="fill:#000000;fill-opacity:1;fill-rule:nonzero;stroke:none"
         id="path477"
         clip-path="url(#clipPath765)" />
      <path
         d="m 862.2656,213.2793 c 0.256,0.052 0.512,0.103 1.019,0.204 0.03,-2.457 0.707,-4.885 -0.467,-7.257 -10e-4,0 0.107,0.076 0.107,0.076 -0.402,-0.205 -0.805,-0.411 -1.206,-0.616 l 0.107,0.075 c -0.577,-0.391 -1.154,-0.782 -1.73,-1.173 l 0.094,0.09 c -0.957,-0.365 -1.914,-0.73 -2.872,-1.095 -0.123,0.122 -0.247,0.243 -0.37,0.365 0.998,1.643 2.03,3.266 2.98,4.935 0.521,0.914 0.902,1.906 1.346,2.863 l -0.081,-0.104 c 0.392,0.578 0.784,1.158 1.177,1.737 z"
         style="fill:#000000;fill-opacity:1;fill-rule:nonzero;stroke:none"
         id="path481"
         clip-path="url(#clipPath810)" />
      <path
         d="m 864.6318,247.2636 c 2.054,-0.399 3.805,-0.74 5.758,-1.12 0.147,-1.608 0.283,-3.091 0.463,-5.058 -2.295,0.834 -4.205,1.529 -6.221,2.261 z"
         style="fill:#000000;fill-opacity:1;fill-rule:nonzero;stroke:none"
         id="path485"
         clip-path="url(#clipPath750)" />
      <path
         d="m 851.0156,249.8252 c -1.437,1.102 -2.91,2.229 -4.343,3.327 0.136,0.289 0.152,0.407 0.216,0.447 4.658,2.868 4.145,2.905 7.705,-1.666 -0.577,-0.395 -1.129,-0.815 -1.72,-1.168 -0.537,-0.321 -1.116,-0.569 -1.858,-0.94"
         style="fill:#000000;fill-opacity:1;fill-rule:nonzero;stroke:none"
         id="path489"
         clip-path="url(#clipPath915)" />
      <path
         d="m 850.1015,249.4131 c -0.696,-0.477 -1.146,-0.748 -1.557,-1.071 -1.315,-1.037 -2.532,-1.063 -3.826,0.119 -0.853,0.779 -1.878,1.372 -2.939,2.131 0.914,1.387 2.442,1.514 3.61,2.416 1.591,-1.214 3.06,-2.335 4.712,-3.595"
         style="fill:#000000;fill-opacity:1;fill-rule:nonzero;stroke:none"
         id="path493"
         clip-path="url(#clipPath900)" />
      <path
         d="m 871.8681,239.9043 c 2.077,-0.201 3.664,-0.299 5.229,-0.539 0.458,-0.069 0.964,-0.459 1.258,-0.846 0.803,-1.053 1.504,-2.185 2.549,-3.737 -3.091,0.662 -5.655,1.557 -8.141,2.597 -0.479,0.2 -0.531,1.424 -0.895,2.525"
         style="fill:#000000;fill-opacity:1;fill-rule:nonzero;stroke:none"
         id="path497"
         clip-path="url(#clipPath825)" />
      <path
         d="m 845.2187,254.1748 c -2.457,-1.804 -4.508,-3.442 -7.459,-1.831 -1.123,0.612 -2.419,0.906 -3.99,1.473 3.75,1.004 9.663,1.241 11.449,0.358"
         style="fill:#000000;fill-opacity:1;fill-rule:nonzero;stroke:none"
         id="path501"
         clip-path="url(#clipPath795)" />
      <path
         d="m 868.2314,200.8759 c 0.655,-0.397 1.31,-0.794 2.133,-1.294 -0.976,-1.405 -1.878,-2.706 -2.773,-3.995 -3.483,1.87 -3.886,2.921 -2.536,6.337 l -0.07,0.025 1.746,-0.609 -0.123,0.062 c 0.583,-0.204 1.167,-0.408 1.75,-0.612 z"
         style="fill:#000000;fill-opacity:1;fill-rule:nonzero;stroke:none"
         id="path505"
         clip-path="url(#clipPath945)" />
      <path
         d="m 855.3603,202.0381 c 0.376,-0.207 0.968,-0.325 1.094,-0.635 0.887,-2.17 1.699,-4.372 2.471,-6.586 0.083,-0.24 -0.237,-0.622 -0.459,-1.151 -2.371,1.61 -3.974,3.754 -5.967,5.635 1.065,1.024 1.995,1.917 2.928,2.815 0.004,0.004 -0.067,-0.078 -0.067,-0.078"
         style="fill:#000000;fill-opacity:1;fill-rule:nonzero;stroke:none"
         id="path509"
         clip-path="url(#clipPath930)" />
      <path
         d="m 853.0956,255.7402 c 3.604,0.388 6.7,0.722 10.229,1.102 -1.05,-1.54 -2.424,-1.831 -3.518,-2.487 -1.156,-0.693 -2.377,-1.279 -3.768,-2.016 -0.89,1.029 -1.745,2.016 -2.943,3.401"
         style="fill:#000000;fill-opacity:1;fill-rule:nonzero;stroke:none"
         id="path513"
         clip-path="url(#clipPath780)" />
      <path
         d="m 863.1874,255.1758 c 0.426,-4.013 0.426,-4.013 -1.166,-6.038 -1.544,0.761 -3.127,1.54 -5.231,2.576 2.294,1.242 4.188,2.266 6.397,3.462"
         style="fill:#000000;fill-opacity:1;fill-rule:nonzero;stroke:none"
         id="path517"
         clip-path="url(#clipPath870)" />
      <path
         d="m 871.7187,245.3701 c 2.877,-0.421 4.578,-1.825 5.083,-4.528 -4.518,-1.138 -5.452,-0.332 -5.083,4.528"
         style="fill:#000000;fill-opacity:1;fill-rule:nonzero;stroke:none"
         id="path521"
         clip-path="url(#clipPath990)" />
      <path
         d="m 868.6445,192.9424 c -0.203,2.251 -0.064,2.524 3.03,6.442 1.119,-0.346 2.349,-0.728 4.158,-1.289 -2.582,-1.85 -4.713,-3.379 -7.188,-5.153"
         style="fill:#000000;fill-opacity:1;fill-rule:nonzero;stroke:none"
         id="path525"
         clip-path="url(#clipPath855)" />
      <path
         d="M 0,0 C -3.359,0.763 -3.374,0.784 -3.596,3.582 -3.743,5.427 -3.906,7.271 -3.645,9.227 -2.452,6.209 -1.26,3.19 0,0"
         style="fill:#000000;fill-opacity:1;fill-rule:nonzero;stroke:none"
         id="path529"
         transform="translate(874.61912,245.708)" />
      <path
         d="M 0,0 C -2.117,0.7 -4.135,1.368 -6.161,2.038 V 4.519 C -4.197,3.816 -2.433,3.231 -0.704,2.554 0.529,2.07 0.311,1.098 0,0"
         style="fill:#000000;fill-opacity:1;fill-rule:nonzero;stroke:none"
         id="path533"
         transform="translate(870.8056,237.8711)" />
      <path
         d="m 0,0 c -1.06,0.327 -2.102,0.648 -3.137,0.968 0.163,1.454 0.551,2.316 2.042,1.933 C 0.426,2.512 0.574,1.545 0,0"
         style="fill:#000000;fill-opacity:1;fill-rule:nonzero;stroke:none"
         id="path537"
         transform="translate(863.08487,240.8037)" />
      <path
         d="M 0,0 V 3.062 C 0.643,3.183 1.34,3.313 2.598,3.549 1.658,1.995 1.011,0.925 0.363,-0.146 Z"
         style="fill:#000000;fill-opacity:1;fill-rule:nonzero;stroke:none"
         id="path541"
         transform="translate(864.6025,253.7529)" />
      <path
         d="m 0,0 c -0.558,0.213 -1.014,0.388 -1.651,0.631 0.482,0.92 0.885,1.688 1.288,2.456 C -0.242,3.063 -0.121,3.039 0,3.015 Z"
         style="fill:#000000;fill-opacity:1;fill-rule:nonzero;stroke:none"
         id="path545"
         transform="translate(863.1865,244.3066)" />
      <path
         d="m 0,0 c -0.274,-0.016 -0.55,-0.037 -0.825,-0.037 -0.029,0 -0.057,0.125 -0.085,0.192 0.284,0.075 0.567,0.151 0.85,0.225 C -0.039,0.253 -0.02,0.126 0,0"
         style="fill:#000000;fill-opacity:1;fill-rule:nonzero;stroke:none"
         id="path549"
         transform="translate(846.79967,254.7373)" />
    </g>
  </g>
</svg>
